<svg width="1280" height="360" viewBox="0 0 1280 360" fill="none" xmlns="http://www.w3.org/2000/svg" role="img" aria-labelledby="title desc">
  <title id="title">Alfouille</title>
  <desc id="desc">Entrepreneur, formateur et builder dans l'intelligence artificielle, la cybersécurité et l'automatisation.</desc>

  <rect width="1280" height="360" rx="18" fill="#0D1117"/>
  <path d="M0 72H1280M0 144H1280M0 216H1280M0 288H1280" stroke="#1B2530"/>
  <path d="M80 0V360M160 0V360M240 0V360M320 0V360M400 0V360M480 0V360M560 0V360M640 0V360M720 0V360M800 0V360M880 0V360M960 0V360M1040 0V360M1120 0V360M1200 0V360" stroke="#141C24"/>

  <rect x="68" y="66" width="8" height="228" rx="4" fill="#4EE1A0"/>
  <circle cx="1162" cy="78" r="6" fill="#4EE1A0"/>
  <circle cx="1190" cy="78" r="6" fill="#243341"/>
  <circle cx="1218" cy="78" r="6" fill="#243341"/>

  <text x="112" y="151" fill="#F0F6FC" font-family="Inter, ui-sans-serif, system-ui, -apple-system, BlinkMacSystemFont, Segoe UI, sans-serif" font-size="76" font-weight="800" letter-spacing="5">ALFOUILLE</text>
  <text x="116" y="204" fill="#9BA9B7" font-family="ui-monospace, SFMono-Regular, Menlo, Monaco, Consolas, monospace" font-size="22" font-weight="500" letter-spacing="2">ENTREPRENEUR · FORMATEUR · BUILDER</text>

  <path d="M116 242H1118" stroke="#263747" stroke-width="2"/>
  <text x="116" y="281" fill="#4EE1A0" font-family="ui-monospace, SFMono-Regular, Menlo, Monaco, Consolas, monospace" font-size="19" letter-spacing="1.5">IA APPLIQUÉE</text>
  <text x="337" y="281" fill="#667788" font-family="ui-monospace, SFMono-Regular, Menlo, Monaco, Consolas, monospace" font-size="19">/</text>
  <text x="371" y="281" fill="#D2DAE2" font-family="ui-monospace, SFMono-Regular, Menlo, Monaco, Consolas, monospace" font-size="19" letter-spacing="1.5">CYBERSÉCURITÉ</text>
  <text x="598" y="281" fill="#667788" font-family="ui-monospace, SFMono-Regular, Menlo, Monaco, Consolas, monospace" font-size="19">/</text>
  <text x="632" y="281" fill="#D2DAE2" font-family="ui-monospace, SFMono-Regular, Menlo, Monaco, Consolas, monospace" font-size="19" letter-spacing="1.5">AUTOMATISATION</text>

  <path d="M1144 242H1218V294" stroke="#4EE1A0" stroke-width="2"/>
  <path d="M1164 262H1218" stroke="#243341" stroke-width="2"/>
</svg>
